<?xml version="1.0" encoding="UTF-8" standalone="no"?>
<!DOCTYPE svg PUBLIC "-//W3C//DTD SVG 1.1//EN"
 "http://www.w3.org/Graphics/SVG/1.1/DTD/svg11.dtd">
<!-- Generated by graphviz version 11.0.0 (20240428.1522)
 -->
<!-- Title: f031k6 Pages: 1 -->
<svg width="690pt" height="277pt"
 viewBox="0.00 0.00 690.47 277.00" xmlns="http://www.w3.org/2000/svg" xmlns:xlink="http://www.w3.org/1999/xlink">
<g id="graph0" class="graph" transform="scale(1 1) rotate(0) translate(4 273)">
<title>f031k6</title>
<polygon fill="white" stroke="none" points="-4,4 -4,-273 686.47,-273 686.47,4 -4,4"/>
<g id="clust1" class="cluster">
<title>clusterLegend</title>
<polygon fill="none" stroke="black" points="8,-8 8,-261 544,-261 544,-8 8,-8"/>
<text text-anchor="middle" x="276" y="-243.7" font-family="Times,serif" font-size="14.00">Legend</text>
</g>
<!-- legendNode0 -->
<g id="node1" class="node">
<title>legendNode0</title>
<polygon fill="none" stroke="black" points="255.29,-192.55 258.14,-192.65 260.95,-192.8 263.72,-192.99 266.44,-193.24 269.1,-193.53 271.68,-193.86 274.18,-194.25 276.59,-194.68 278.89,-195.15 281.09,-195.66 283.17,-196.21 285.12,-196.81 286.94,-197.44 288.62,-198.11 290.17,-198.81 291.57,-199.54 292.82,-200.3 293.92,-201.09 294.87,-201.91 295.66,-202.75 296.31,-203.61 296.8,-204.49 297.15,-205.39 297.34,-206.3 297.4,-207.22 297.31,-208.15 297.08,-209.09 296.73,-210.03 296.24,-210.97 295.64,-211.91 294.92,-212.85 294.08,-213.78 293.14,-214.7 292.11,-215.61 290.98,-216.51 289.77,-217.39 288.48,-218.25 287.11,-219.09 285.68,-219.91 284.18,-220.7 282.63,-221.46 281.03,-222.19 279.39,-222.89 277.7,-223.56 275.98,-224.19 274.23,-224.79 272.46,-225.34 270.65,-225.85 268.83,-226.32 267,-226.75 265.14,-227.14 263.28,-227.47 261.4,-227.76 259.52,-228.01 257.63,-228.2 255.74,-228.35 253.85,-228.45 251.95,-228.5 250.05,-228.5 248.15,-228.45 246.26,-228.35 244.37,-228.2 242.48,-228.01 240.6,-227.76 238.72,-227.47 236.86,-227.14 235,-226.75 233.17,-226.32 231.35,-225.85 229.54,-225.34 227.77,-224.79 226.02,-224.19 224.3,-223.56 222.61,-222.89 220.97,-222.19 219.37,-221.46 217.82,-220.7 216.32,-219.91 214.89,-219.09 213.52,-218.25 212.23,-217.39 211.02,-216.51 209.89,-215.61 208.86,-214.7 207.92,-213.78 207.08,-212.85 206.36,-211.91 205.76,-210.97 205.27,-210.03 204.92,-209.09 204.69,-208.15 204.6,-207.22 204.66,-206.3 204.85,-205.39 205.2,-204.49 205.69,-203.61 206.34,-202.75 207.13,-201.91 208.08,-201.09 209.18,-200.3 210.43,-199.54 211.83,-198.81 213.38,-198.11 215.06,-197.44 216.88,-196.81 218.83,-196.21 220.91,-195.66 223.11,-195.15 225.41,-194.68 227.82,-194.25 230.32,-193.86 232.9,-193.53 235.56,-193.24 238.28,-192.99 241.05,-192.8 243.86,-192.65 246.71,-192.55 249.57,-192.5 252.43,-192.5 255.29,-192.55"/>
<text text-anchor="middle" x="251" y="-206.22" font-family="Times,serif" font-size="12.00">Executable</text>
</g>
<!-- legendNode1 -->
<g id="node2" class="node">
<title>legendNode1</title>
<polygon fill="none" stroke="black" points="126.42,-123.04 126.42,-137.96 93.96,-148.5 48.04,-148.5 15.58,-137.96 15.58,-123.04 48.04,-112.5 93.96,-112.5 126.42,-123.04"/>
<text text-anchor="middle" x="71" y="-126.22" font-family="Times,serif" font-size="12.00">Static Library</text>
</g>
<!-- legendNode0&#45;&gt;legendNode1 -->
<g id="edge1" class="edge">
<title>legendNode0&#45;&gt;legendNode1</title>
<path fill="none" stroke="black" d="M219.23,-195.73C190.04,-183.08 146.51,-164.22 114.17,-150.21"/>
<polygon fill="black" stroke="black" points="115.62,-147.02 105.05,-146.26 112.84,-153.44 115.62,-147.02"/>
</g>
<!-- legendNode2 -->
<g id="node3" class="node">
<title>legendNode2</title>
<polygon fill="none" stroke="black" points="268.07,-123.04 268.07,-137.96 232.88,-148.5 183.12,-148.5 147.93,-137.96 147.93,-123.04 183.12,-112.5 232.88,-112.5 268.07,-123.04"/>
<polygon fill="none" stroke="black" points="272.07,-120.07 272.07,-140.93 233.47,-152.5 182.53,-152.5 143.93,-140.93 143.93,-120.07 182.53,-108.5 233.47,-108.5 272.07,-120.07"/>
<text text-anchor="middle" x="208" y="-126.22" font-family="Times,serif" font-size="12.00">Shared Library</text>
</g>
<!-- legendNode0&#45;&gt;legendNode2 -->
<g id="edge2" class="edge">
<title>legendNode0&#45;&gt;legendNode2</title>
<path fill="none" stroke="black" d="M241.67,-192.58C236.85,-183.84 230.82,-172.9 225.2,-162.7"/>
<polygon fill="black" stroke="black" points="228.4,-161.25 220.5,-154.18 222.27,-164.63 228.4,-161.25"/>
</g>
<!-- legendNode3 -->
<g id="node4" class="node">
<title>legendNode3</title>
<polygon fill="none" stroke="black" points="423.65,-123.04 423.65,-137.96 386.95,-148.5 335.05,-148.5 298.35,-137.96 298.35,-123.04 335.05,-112.5 386.95,-112.5 423.65,-123.04"/>
<polygon fill="none" stroke="black" points="427.65,-120.03 427.65,-140.97 387.51,-152.5 334.49,-152.5 294.35,-140.97 294.35,-120.03 334.49,-108.5 387.51,-108.5 427.65,-120.03"/>
<polygon fill="none" stroke="black" points="431.65,-117.02 431.65,-143.98 388.08,-156.5 333.92,-156.5 290.35,-143.98 290.35,-117.02 333.92,-104.5 388.08,-104.5 431.65,-117.02"/>
<text text-anchor="middle" x="361" y="-126.22" font-family="Times,serif" font-size="12.00">Module Library</text>
</g>
<!-- legendNode0&#45;&gt;legendNode3 -->
<!-- legendNode7 -->
<g id="node8" class="node">
<title>legendNode7</title>
<polygon fill="none" stroke="black" points="535.88,-148.5 450.12,-148.5 450.12,-112.5 535.88,-112.5 535.88,-148.5"/>
<text text-anchor="middle" x="493" y="-126.22" font-family="Times,serif" font-size="12.00">Custom Target</text>
</g>
<!-- legendNode0&#45;&gt;legendNode7 -->
<!-- legendNode4 -->
<g id="node5" class="node">
<title>legendNode4</title>
<polygon fill="none" stroke="black" points="166.08,-39.56 91,-52 15.92,-39.56 44.6,-19.44 137.4,-19.44 166.08,-39.56"/>
<text text-anchor="middle" x="91" y="-29.73" font-family="Times,serif" font-size="12.00">Interface Library</text>
</g>
<!-- legendNode1&#45;&gt;legendNode4 -->
<g id="edge4" class="edge">
<title>legendNode1&#45;&gt;legendNode4</title>
<path fill="none" stroke="black" stroke-dasharray="5,2" d="M74.67,-112.17C77.59,-98.36 81.74,-78.77 85.12,-62.78"/>
<polygon fill="black" stroke="black" points="88.46,-63.89 87.11,-53.39 81.61,-62.44 88.46,-63.89"/>
<text text-anchor="middle" x="107" y="-73.2" font-family="Times,serif" font-size="14.00">Interface</text>
</g>
<!-- legendNode5 -->
<g id="node6" class="node">
<title>legendNode5</title>
<polygon fill="none" stroke="black" points="309.98,-34 278.49,-52 215.51,-52 184.02,-34 215.51,-16 278.49,-16 309.98,-34"/>
<text text-anchor="middle" x="247" y="-29.73" font-family="Times,serif" font-size="12.00">Object Library</text>
</g>
<!-- legendNode2&#45;&gt;legendNode5 -->
<g id="edge5" class="edge">
<title>legendNode2&#45;&gt;legendNode5</title>
<path fill="none" stroke="black" stroke-dasharray="1,5" d="M216.85,-108.06C222.4,-94.6 229.61,-77.13 235.59,-62.64"/>
<polygon fill="black" stroke="black" points="238.72,-64.24 239.3,-53.66 232.25,-61.57 238.72,-64.24"/>
<text text-anchor="middle" x="251.12" y="-73.2" font-family="Times,serif" font-size="14.00">Private</text>
</g>
<!-- legendNode6 -->
<g id="node7" class="node">
<title>legendNode6</title>
<polygon fill="none" stroke="black" points="472.18,-29.99 457.89,-45.22 400,-52 342.11,-45.22 327.82,-29.99 367.88,-17.78 432.12,-17.78 472.18,-29.99"/>
<text text-anchor="middle" x="400" y="-29.73" font-family="Times,serif" font-size="12.00">Unknown Library</text>
</g>
<!-- legendNode3&#45;&gt;legendNode6 -->
<g id="edge6" class="edge">
<title>legendNode3&#45;&gt;legendNode6</title>
<path fill="none" stroke="black" d="M371.45,-104.18C376.85,-91.11 383.43,-75.16 388.91,-61.87"/>
<polygon fill="black" stroke="black" points="392.05,-63.44 392.63,-52.86 385.58,-60.77 392.05,-63.44"/>
</g>
<!-- node0 -->
<g id="node9" class="node">
<title>node0</title>
<polygon fill="none" stroke="black" points="621.12,-192.55 623.18,-192.65 625.23,-192.8 627.24,-192.99 629.21,-193.24 631.14,-193.53 633.02,-193.86 634.84,-194.25 636.59,-194.68 638.26,-195.15 639.85,-195.66 641.36,-196.21 642.78,-196.81 644.1,-197.44 645.33,-198.11 646.45,-198.81 647.46,-199.54 648.37,-200.3 649.17,-201.09 649.86,-201.91 650.44,-202.75 650.91,-203.61 651.26,-204.49 651.51,-205.39 651.66,-206.3 651.7,-207.22 651.63,-208.15 651.47,-209.09 651.21,-210.03 650.86,-210.97 650.42,-211.91 649.89,-212.85 649.29,-213.78 648.61,-214.7 647.86,-215.61 647.04,-216.51 646.16,-217.39 645.22,-218.25 644.23,-219.09 643.18,-219.91 642.1,-220.7 640.97,-221.46 639.81,-222.19 638.62,-222.89 637.39,-223.56 636.15,-224.19 634.87,-224.79 633.58,-225.34 632.27,-225.85 630.95,-226.32 629.62,-226.75 628.27,-227.14 626.92,-227.47 625.56,-227.76 624.19,-228.01 622.82,-228.2 621.44,-228.35 620.07,-228.45 618.69,-228.5 617.31,-228.5 615.93,-228.45 614.56,-228.35 613.18,-228.2 611.81,-228.01 610.44,-227.76 609.08,-227.47 607.73,-227.14 606.38,-226.75 605.05,-226.32 603.73,-225.85 602.42,-225.34 601.13,-224.79 599.85,-224.19 598.61,-223.56 597.38,-222.89 596.19,-222.19 595.03,-221.46 593.9,-220.7 592.82,-219.91 591.77,-219.09 590.78,-218.25 589.84,-217.39 588.96,-216.51 588.14,-215.61 587.39,-214.7 586.71,-213.78 586.11,-212.85 585.58,-211.91 585.14,-210.97 584.79,-210.03 584.53,-209.09 584.37,-208.15 584.3,-207.22 584.34,-206.3 584.49,-205.39 584.74,-204.49 585.09,-203.61 585.56,-202.75 586.14,-201.91 586.83,-201.09 587.63,-200.3 588.54,-199.54 589.55,-198.81 590.67,-198.11 591.9,-197.44 593.22,-196.81 594.64,-196.21 596.15,-195.66 597.74,-195.15 599.41,-194.68 601.16,-194.25 602.98,-193.86 604.86,-193.53 606.79,-193.24 608.76,-192.99 610.77,-192.8 612.82,-192.65 614.88,-192.55 616.96,-192.5 619.04,-192.5 621.12,-192.55"/>
<text text-anchor="middle" x="618" y="-206.22" font-family="Times,serif" font-size="12.00">f031k6</text>
</g>
<!-- node1 -->
<g id="node10" class="node">
<title>node1</title>
<polygon fill="none" stroke="black" points="682.47,-136.06 618,-148.5 553.53,-136.06 578.16,-115.94 657.84,-115.94 682.47,-136.06"/>
<text text-anchor="middle" x="618" y="-126.22" font-family="Times,serif" font-size="12.00">stm32cubemx</text>
</g>
<!-- node0&#45;&gt;node1 -->
<g id="edge8" class="edge">
<title>node0&#45;&gt;node1</title>
<path fill="none" stroke="black" stroke-dasharray="1,5" d="M618,-192.19C618,-182.8 618,-170.95 618,-160.21"/>
<polygon fill="black" stroke="black" points="621.5,-160.28 618,-150.28 614.5,-160.28 621.5,-160.28"/>
</g>
</g>
</svg>
